<?xml version="1.0" encoding="UTF-8"?><svg id="a" xmlns="http://www.w3.org/2000/svg" viewBox="0 0 620.95 251.76"><defs><style>.b{fill:#714c07;}</style></defs><path class="b" d="M1.72,158.29C7.88,124.53,23.36,91.67,41.35,62.68c8.54-13.76,18.11-27.14,29.63-38.58,7.78-7.73,17.16-15.31,28.16-17.57,38.12-7.85,9.97,59,2.72,73.42-1.27,2.52-9.97,3.52-8.13-.14,8.16-16.24,15.88-36.1,16.28-54.46,.13-5.99-.98-14.57-8.6-14.57-4,0-7.9,2.3-11.14,4.4-22.45,14.55-38.15,41.57-50.56,64.49-14.1,26.04-26.63,55.03-30.36,84.66-1.26,10-1.79,21.63,3.04,30.86,5.62,10.74,17.55,12.03,28.25,8.52,17.91-5.87,33.54-19.19,47.32-31.61,12.08-10.89,23.42-22.62,34.13-34.86,1.84-2.1,10.57-2.65,8.13,.14-13.94,15.91-28.81,31.17-45.15,44.63-15.83,13.04-35.88,28.06-57.35,28.5-29.34,.61-29.91-30.71-25.98-52.25Z"/><path class="b" d="M199.98,157.02c-6.99,4.7-18.06,6.7-27.15,4.61-2.04,2.63-4.27,4.89-6.47,6.57-9.36,7.12-25.21,7.47-25.75-7.24-.49-13.37,8-28.03,21.7-30.51,.45-.08,.83-.12,1.19-.14,1.6-1.27,3.49-2.21,5.67-2.65,4.98-1,9.84,.75,11.51,5.8,2.25,6.8-.01,15.24-4.06,22.43,5.76,2.23,12.71,2.14,17.96-1.4,2.74-1.85,10.29-.77,5.4,2.51Zm-33.96,2c-5.29-3.07-8.8-8.31-8.45-16.21,.11-2.44,.69-4.84,1.7-7-7.91,3.69-11.59,20.98-9.17,27.76,3.54,9.96,11.22,2.34,15.92-4.55Zm6.47-20.19c-.13-1.58-.41-3.58-1.42-4.89-1.66-2.15-1.75-1.48-2.88,.35-4.3,6.97-2.58,13.22,1.81,17.46,1.6-4.03,2.85-8.62,2.49-12.93Z"/><path class="b" d="M264.94,156.05c-6.33,8.43-16.03,19.59-27.79,18.26-10.88-1.23-10.3-14.33-10.06-22.57,.15-5.37,1.31-11.67-.21-16.92-2.17-7.48-8.34,1.22-10.88,4.58-8.32,11.03-13.74,24.15-18.99,36.83-1.06,2.56-9.69,4.31-8.73,1.12,5.41-18.04,10.74-36.1,16.2-54.13,.88-2.92,9.64-4.1,8.73-1.12-1.69,5.59-3.36,11.19-5.04,16.79,5.31-6.84,14.66-15.79,23.42-11.83,8.11,3.67,4.08,20.68,4.16,27.45,.05,3.93-.14,12.39,4.27,14.44,5.64,2.62,13.89-9.2,16.79-13.05,1.69-2.26,10.44-2.94,8.13,.14Z"/><path class="b" d="M373.83,44.79c-1.21,1.65-4.37,1.85-6.18,1.66-23.99-2.53-48.07-3.4-72.11-2.65-3,8.56-5.54,17.31-8.02,25.94-10.6,36.94-18.81,74.76-24.72,112.73-2.32,14.87-4.43,29.91-4.9,44.97-.15,4.75-.27,9.73,.67,14.42,.29,1.45,.67,2.79,1.26,4.14,.2,.46,.39,.67,.52,.78,4.8-.31,1.8,4.23-2.11,4.85-9.84,1.55-9.15-12.28-9.15-18.56,.05-35.97,8.33-72.7,16.03-107.64,5.91-26.81,11.82-55.12,21.71-81.29-21.71,1.03-43.36,3.37-64.84,7.01-6.04,1.03-2.9-4.05,1.22-4.75,21.72-3.69,43.59-6.04,65.51-7.08,2.12-5.27,4.39-10.45,6.9-15.5,1.26-2.53,9.95-3.54,8.13,.14-2.42,4.87-4.52,9.9-6.45,15.02,25.24-.8,50.53,.13,75.73,2.79,2.21,.23,1.7,1.82,.81,3.03Z"/><path class="b" d="M356.99,154.57c-8.42,9.18-22.12,29.11-37.25,23.9-8.87-3.05-8.81-13.71-6.11-24.33-3.61,3.73-7.49,7.09-11.61,9.79-6.01,3.95-18.42,8.1-20.23-2.27-1.74-9.92,5.61-22.6,12.74-28.87,6.25-5.5,23.59-11.32,25.83,1.51,.5-.82,.99-1.64,1.46-2.48,.56-.98,2.29-1.71,4.04-2.02,2.78-.67,5.99-.26,4.74,2.07-5.18,9.66-12.78,27.12-8.18,38.25,4.98,12.03,22.29-11.17,26.44-15.69,1.88-2.05,10.6-2.55,8.13,.14Zm-38.33-17.58c-2.46,1.44-6.7,1.78-7.02-.2-2.22-13.52-14.59,2.02-16.96,6.46-2.38,4.46-6.17,12.79-3.76,17.88,2.92,6.17,12.4-5.3,15.11-8.17,4.62-4.9,8.92-10.28,12.63-15.97Z"/><path class="b" d="M396.4,156.65c-8.41,8.26-20.35,16.98-32.55,17.79-12.25,.82-16.28-10.1-14.59-20.64,1.79-11.19,9.77-22.05,20.47-26.21,7.99-3.1,20.16,.93,12.89,10.77-1.68,2.27-10.42,2.96-8.13-.14,3.33-4.2,2.11-6.19-3.67-5.98-1.56,1.02-3.01,2.19-4.33,3.51-1.85,1.85-3.47,4.02-4.77,6.29-2.72,4.72-4.21,10.25-4.04,15.7,.09,2.86,.43,6.48,2.37,8.79,2.58,3.08,9.57,2.07,12.97,.68,6.18-2.52,11.72-7.33,16.4-11.94,2.03-2,10.59-2.16,6.99,1.37Z"/><path class="b" d="M505.76,44.79c-1.21,1.65-4.37,1.85-6.18,1.66-23.99-2.53-48.07-3.4-72.11-2.65-3,8.56-5.54,17.31-8.02,25.94-10.6,36.94-18.81,74.76-24.72,112.73-2.32,14.87-4.43,29.91-4.9,44.97-.15,4.75-.27,9.73,.67,14.42,.29,1.45,.67,2.79,1.26,4.14,.2,.46,.39,.67,.52,.78,4.8-.31,1.8,4.23-2.11,4.85-9.84,1.55-9.15-12.28-9.15-18.56,.05-35.97,8.33-72.7,16.03-107.64,5.91-26.81,11.82-55.12,21.71-81.29-21.71,1.03-43.36,3.37-64.84,7.01-6.04,1.03-2.9-4.05,1.22-4.75,21.72-3.69,43.59-6.04,65.51-7.08,2.12-5.27,4.39-10.45,6.9-15.5,1.26-2.53,9.95-3.54,8.13,.14-2.42,4.87-4.52,9.9-6.45,15.02,25.24-.8,50.53,.13,75.73,2.79,2.21,.23,1.7,1.82,.81,3.03Z"/><path class="b" d="M593.3,30.29c-10.09,21.12-21.22,41.94-33.68,61.89-3.18,8.53-6,17.19-8.51,25.88-8.39,29.05-13.7,59.24-14.89,89.48-.11,2.86-8.87,4.63-8.73,1.12,1.22-30.94,6.74-61.85,15.49-91.53-2.73,3.82-5.51,7.6-8.36,11.33-14.77,19.34-34.37,44.23-59.65,49.53-7.26,1.52-16.11,1.46-21.27-4.68-5.22-6.21-5.77-15.54-5.78-23.26-.02-26.55,8.2-53.52,16.9-78.34,8.42-24.01,18.37-48.98,33.36-69.75,1.65-2.29,10.4-3.01,8.13,.14-15.77,21.85-25.98,48.25-34.51,73.62-7.64,22.72-14.82,47.16-15.12,71.33-.09,7.18,.2,16.22,4.68,22.26,4.88,6.57,13.41,4.96,19.96,1.93,10.64-4.92,19.62-13.56,27.59-21.97,10.82-11.43,20.34-24.11,29.25-37.06,4.54-6.6,8.93-13.31,13.18-20.11,8.33-22.14,19.17-43.44,33.84-61.95,1.16-1.46,9.86-3.5,8.43-.49-.1,.21-.2,.42-.3,.63Z"/><path class="b" d="M618.41,157.57c-9.86,3.56-21.31,8.37-30.98,14.98,14.16,9.96,1.61,29.92-11.74,34.12-5.55,1.75-12.53,1-14.94-5.08-2.94-7.42,3.21-14.96,7.97-19.97,2.51-2.64,5.24-5.09,8.12-7.38-3.27-2.19-6.71-4.31-8.81-7.18-9.28-12.7-4.37-30.35,9.36-37.49,5.98-3.11,13.95-4.62,20.29-1.62,6.28,2.97,9.37,9.98,6.95,16.46-1.07,2.88-9.78,3.92-8.73,1.12,2.96-7.94-3.91-16.8-13.04-13.45-5.77,2.11-9.59,8.96-10.63,14.71-1.93,10.7,3.65,17.2,11.02,22.78,9.84-6.58,20.95-11.61,31.72-15.49,3.94-1.42,9.17,1.44,3.43,3.51Zm-37.31,19.82c-4,3.44-7.47,7.28-10.05,11.61-2.43,4.07-3.76,17.06,5.22,11.93,3.89-2.22,7.87-8.77,8.79-13.01,1.02-4.74-.95-7.9-3.96-10.54Z"/></svg>