<?xml version="1.0" encoding="UTF-8"?><svg id="a" xmlns="http://www.w3.org/2000/svg" xmlns:xlink="http://www.w3.org/1999/xlink" viewBox="0 0 1080 1080"><defs><style>.g{fill:url(#c);}.h{fill:url(#f);}.i{fill:url(#b);}.j{fill:url(#d);}.k{fill:url(#e);}</style><linearGradient id="b" x1="592.94" y1="902.65" x2="578.87" y2="70.36" gradientTransform="translate(-173 547.7) rotate(-47.22)" gradientUnits="userSpaceOnUse"><stop offset="0" stop-color="#3e38c9"/><stop offset=".49" stop-color="#00989f"/><stop offset="1" stop-color="#d6f1a0"/></linearGradient><linearGradient id="c" x1="561.35" y1="747.4" x2="533.33" y2="-93.29" gradientTransform="translate(-173 547.7) rotate(-47.22)" gradientUnits="userSpaceOnUse"><stop offset="0" stop-color="#d6f1a0"/><stop offset=".51" stop-color="#00989f"/><stop offset="1" stop-color="#3e38c9"/></linearGradient><linearGradient id="d" x1="682.91" y1="642.18" x2="1085.73" y2="168.69" gradientTransform="matrix(1, 0, 0, 1, 0, 0)" xlink:href="#b"/><linearGradient id="e" x1="-65" y1="877.04" x2="508.9" y2="202.44" gradientTransform="matrix(1, 0, 0, 1, 0, 0)" gradientUnits="userSpaceOnUse"><stop offset="0" stop-color="#00989f"/><stop offset="1" stop-color="#d6f1a0"/></linearGradient><linearGradient id="f" x1="572.26" y1="818.3" x2="572.41" y2="818.3" xlink:href="#e"/></defs><path class="i" d="M664.43,409.24s.06,.06,.07,.12c27.71,74.32,40.99,165.71,32.8,277.94l-1.31-1.21C595.4,198.04,165.74,179.07,147.87,178.47c383.08-16.83,513.3,224.62,516.55,230.77Z"/><path class="g" d="M695.98,686.09C541.44,276.09,147.87,178.47,147.87,178.47c17.86,.6,447.53,19.57,548.11,507.61Z"/><path class="j" d="M724.79,646.9l.7-1.06c325.8-123.63,291.2-422.42,289.62-434.83,.03-.09,0-.21-.05-.28v-.04s-.02-.08-.02-.08l-1.71-1.17c-263.53,51.45-312.45,237.15-313.64,241.84,0-.25,.05-.46,.05-.71,.44-3.41,.9-6.74,1.4-10.04,.34-2.24,.72-4.49,1.07-6.69,.52-2.68,.99-5.36,1.55-8.05l1.01-4.78c.36-1.58,.69-3.16,1.05-4.75,.36-1.58,.76-3.22,1.17-4.81,.4-1.59,.81-3.18,1.22-4.73,.38-1.46,.81-2.89,1.2-4.36,.23-.86,.47-1.72,.7-2.55,.46-1.48,.89-2.95,1.32-4.38,1.17-3.74,2.36-7.39,3.64-10.98,.5-1.48,1.01-2.93,1.57-4.38,.51-1.44,1.06-2.89,1.62-4.3,1.07-2.85,2.22-5.68,3.38-8.46,.6-1.38,1.21-2.75,1.76-4.16,.31-.67,.64-1.38,.95-2.05,.31-.67,.6-1.38,.91-2.04,1.4-3.07,2.82-6.06,4.28-9.02,.66-1.3,1.28-2.56,1.94-3.86,.82-1.57,1.68-3.16,2.5-4.73,1.69-3.08,3.39-6.11,5.13-9.12,.87-1.5,1.75-2.96,2.66-4.47,.45-.77,.94-1.6,1.44-2.34,.09-.18,.2-.32,.29-.5,3.14-5.08,6.47-10.03,9.83-14.82,1.54-2.23,3.13-4.42,4.75-6.62,1.26-1.65,2.52-3.33,3.82-4.99,.4-.56,.88-1.17,1.33-1.74,1.58-1.99,3.16-3.97,4.78-5.92l.03-.05c1.58-1.95,3.22-3.86,4.85-5.77,.14-.15,.24-.29,.38-.43,1.74-2.01,3.45-3.94,5.2-5.87,1.4-1.55,2.84-3.1,4.29-4.61,.59-.71,1.22-1.39,1.9-2.04,1.34-1.41,2.65-2.78,4.03-4.16,.32-.34,.67-.69,1-.98,1.7-1.76,3.44-3.48,5.16-5.12,.07-.09,.18-.15,.22-.2,1.46-1.43,2.97-2.83,4.48-4.23,.93-.89,1.9-1.75,2.84-2.6,1.58-1.49,3.2-2.91,4.83-4.32,1.66-1.5,3.39-3.02,5.14-4.46,1.7-1.47,3.45-2.95,5.19-4.38,.69-.57,1.43-1.14,2.15-1.75,1.32-1.04,2.63-2.11,3.98-3.2,6.95-5.49,14.08-10.72,21.2-15.66,1.34-.92,2.64-1.79,3.98-2.7,11.38-7.73,22.92-14.74,34.46-21.18,1.4-.8,2.8-1.56,4.24-2.33,4.74-2.62,9.49-5.12,14.22-7.49,1.87-.96,3.73-1.92,5.57-2.83,5.65-2.81,11.29-5.45,16.87-7.95,1.77-.82,3.5-1.55,5.24-2.33,1.3-.62,2.62-1.16,3.93-1.71,1.65-.76,3.28-1.43,4.9-2.11,2.62-1.12,5.22-2.16,7.78-3.19,2.09-.87,4.19-1.66,6.24-2.49,2.05-.83,4.11-1.61,6.17-2.39,2.03-.74,4.05-1.52,6.03-2.25,2.03-.74,3.97-1.46,5.96-2.16,1.99-.69,3.94-1.38,5.86-2.06,.27-.13,.59-.18,.86-.3,5.56-1.88,10.85-3.6,16.03-5.26h.04c1.8-.59,3.57-1.12,5.31-1.64,3.77-1.18,7.44-2.23,10.99-3.21,1.42-.39,2.84-.83,4.22-1.21,6.44-1.78,12.46-3.32,17.93-4.7,.8-.17,1.59-.38,2.39-.55,1.9-.47,3.69-.88,5.44-1.29,1.23-.28,2.39-.55,3.58-.82,3.47-.76,6.62-1.44,9.45-2.02,.96-.2,1.84-.38,2.68-.51,5.08-1.02,8.65-1.6,10.5-1.94h.04c.52,2.18,1.52,6.64,2.81,13.11,.2,.96,.4,1.96,.56,2.96,1.59,8.08,3.43,18.79,5.16,31.55,.43,3.19,.84,6.51,1.27,9.94,.2,1.74,.4,3.48,.6,5.27,.36,3.53,.75,7.22,1.11,11,1.4,15.12,2.42,31.95,2.63,49.99,.07,2.26,.07,4.53,.06,6.8,0,4.62-.08,9.25-.19,13.97-.03,2.36-.07,4.71-.17,7.12v.04c-.4,11.08-1.16,22.5-2.3,34.12-.13,1.75-.31,3.43-.53,5.16-.62,5.88-1.36,11.81-2.22,17.76-.23,1.65-.51,3.26-.78,4.91-1.46,9.39-3.23,18.92-5.33,28.41v.04c-1.18,5.18-2.42,10.33-3.77,15.5-1.29,4.83-2.65,9.71-4.09,14.56-1.45,4.81-3.03,9.64-4.69,14.45-.45,1.31-.9,2.62-1.39,3.9-10.33,28.89-24.46,57.19-43.58,83.49-1.82,2.56-3.76,5.1-5.74,7.65-1.94,2.54-3.93,5.05-6.01,7.53-1.04,1.24-2.08,2.44-3.12,3.68-2.12,2.49-4.28,4.94-6.49,7.35-1.09,1.21-2.21,2.42-3.34,3.59-.98,1.07-2.01,2.1-3.03,3.21l-9.51,9.33c-1.07,1.04-2.19,2.04-3.31,3.05-1.12,1-2.23,2.05-3.35,3.01-1.11,1.04-2.23,2.01-3.4,2.98-3.44,2.99-7.01,5.91-10.64,8.76-3.67,2.86-7.42,5.69-11.27,8.41-1.48,1.06-2.88,2.07-4.37,3.1-1.16,.76-2.31,1.57-3.5,2.34-1.3,.87-2.64,1.79-4.03,2.67-1.35,.84-2.69,1.75-4.08,2.59-2.74,1.72-5.55,3.45-8.38,5.1-1.4,.8-2.79,1.64-4.23,2.41t-.07,.05c-48.23,27.39-109.89,46.71-188.28,53.54Z"/><path class="k" d="M147.29,178.49l-2.06,2.18c11.88,357.05,230.11,478.16,265.5,495.49,.36,.06,.79,.12,1.15,.18,.18,.06,.42,.06,.67,.18h-1.03c2.18,1.03,3.51,1.64,3.94,1.82-.36-.06-.67-.18-.97-.24-1.82-.55-3.64-1.09-5.39-1.64-27.08-.18-201.82,7.88-320.09,228.48l.61,1.94,.06,.06h.06c.06,.06,.18,.12,.24,.12,10.54,4.85,248.23,109.42,453.56-94.94C326.02,1125.66,5.57,935.66,.06,932.39l-.06-.06c.91-1.64,2.48-4.91,4.97-9.45,.36-.79,.79-1.58,1.27-2.42,1.39-2.54,2.97-5.33,4.73-8.42,.61-1.03,1.21-2.06,1.82-3.15,.91-1.58,1.82-3.15,2.85-4.85,.42-.73,.85-1.39,1.21-2.12,2.97-4.85,6.18-10.12,9.82-15.75,.73-1.21,1.58-2.42,2.36-3.7,2-3.09,4.06-6.3,6.3-9.51,1.03-1.51,2.06-3.03,3.15-4.6v-.06c3.15-4.42,6.3-8.97,9.75-13.75,.18-.18,.36-.49,.55-.73,1.21-1.64,2.42-3.27,3.7-4.97,1.27-1.7,2.54-3.33,3.82-5.09,1.27-1.7,2.6-3.39,3.94-5.09,1.33-1.76,2.73-3.45,4.12-5.21,1.39-1.7,2.73-3.45,4.18-5.21,1.76-2.12,3.51-4.3,5.33-6.48,1.15-1.39,2.3-2.73,3.51-4.06,.91-1.09,1.76-2.24,2.79-3.27,1.21-1.45,2.42-2.85,3.76-4.3,4-4.6,8.18-9.21,12.54-13.81,1.45-1.45,2.91-2.97,4.36-4.48,3.64-3.82,7.45-7.63,11.33-11.39,1.15-1.15,2.3-2.24,3.51-3.33,9.51-9.15,19.63-18.12,30.35-26.72,1.27-.97,2.48-2,3.76-2.97,6.85-5.39,13.94-10.66,21.21-15.69,1.45-.97,2.91-1.88,4.24-2.85,.79-.48,1.58-1.03,2.3-1.51,1.94-1.27,3.82-2.48,5.76-3.7,1.88-1.21,3.82-2.42,5.76-3.57,1.82-1.15,3.7-2.3,5.57-3.33,1.09-.67,2.18-1.33,3.33-2,1.76-1.03,3.51-2,5.33-3.03,.06,0,.12-.06,.24-.12,2.06-1.15,4.24-2.3,6.42-3.39,.36-.24,.85-.48,1.21-.67,1.76-.97,3.45-1.82,5.21-2.67,.79-.42,1.64-.85,2.48-1.21,1.88-.91,3.76-1.88,5.7-2.73,2.36-1.09,4.66-2.18,7.09-3.27,.18-.06,.36-.12,.54-.24,2.3-.97,4.6-1.94,6.97-2.91h.06c2.3-.97,4.66-1.94,7.03-2.85,.67-.24,1.39-.55,2.06-.73,2-.79,3.94-1.45,5.94-2.18,2.54-.91,5.09-1.82,7.69-2.61,5.57-1.82,11.27-3.51,17.09-5.03,.18,0,.36-.06,.54-.12,.85-.24,1.76-.49,2.67-.67,1.7-.42,3.33-.85,5.03-1.27,3.39-.79,6.79-1.51,10.24-2.18,1.76-.3,3.51-.67,5.27-1.03,1.45-.24,2.79-.42,4.24-.67,3.27-.54,6.54-1.03,9.88-1.45,.73-.12,1.51-.18,2.24-.24,.73-.12,1.52-.24,2.24-.3,1.51-.12,2.97-.3,4.48-.49,3.03-.3,6.06-.55,9.09-.73,1.51-.12,3.03-.24,4.6-.3,1.51-.06,3.09-.12,4.6-.18,3.82-.18,7.69-.24,11.57-.24,1.51,0,3.03,.06,4.6,0,.85,.06,1.76,.06,2.6,.12,1.51,.06,3.03,.06,4.54,.12,1.58,.06,3.21,.12,4.85,.24,1.7,.06,3.33,.18,4.97,.3,1.64,.12,3.21,.24,4.85,.36l4.85,.48c2.73,.24,5.45,.61,8.18,.85,2.18,.36,4.42,.67,6.66,.97,1.09,.18,2.18,.3,3.33,.54-1.51-.48-3.09-.97-4.6-1.45-3.03-.97-6.12-2-9.15-3.03-3.7-1.27-7.33-2.61-10.97-3.94l-6.6-2.54c-2.12-.85-4.24-1.7-6.42-2.54l-6.54-2.73c-2.12-.97-4.3-1.88-6.42-2.79-1.94-.91-3.88-1.82-5.88-2.67-1.15-.55-2.3-1.09-3.39-1.64-2-.97-3.94-1.88-5.94-2.85-4.97-2.48-9.88-5.03-14.66-7.63-1.94-1.03-3.88-2.12-5.82-3.15-1.94-1.09-3.82-2.18-5.7-3.27-3.76-2.18-7.51-4.42-11.21-6.73-1.76-1.15-3.57-2.3-5.45-3.45-.85-.61-1.76-1.21-2.67-1.76-.85-.61-1.82-1.21-2.67-1.76-4-2.67-7.88-5.39-11.75-8.12-1.7-1.21-3.39-2.42-5.03-3.64-2.06-1.45-4.12-3.03-6.12-4.6-4-3.03-7.88-6.12-11.69-9.27-1.94-1.57-3.82-3.15-5.7-4.79-1.03-.79-2.06-1.7-2.97-2.54-.24-.18-.49-.36-.67-.55-6.42-5.57-12.72-11.39-18.72-17.27-2.79-2.67-5.51-5.39-8.24-8.18-2.06-2.18-4.12-4.3-6.18-6.48-.73-.73-1.45-1.51-2.12-2.3-2.48-2.67-4.91-5.33-7.27-8.06l-.06-.06c-2.42-2.73-4.79-5.45-7.09-8.18-.18-.24-.36-.42-.49-.67-2.48-2.85-4.85-5.76-7.15-8.66-1.88-2.36-3.7-4.73-5.51-7.09-.85-1.03-1.7-2.06-2.42-3.15-1.7-2.18-3.39-4.36-4.97-6.6-.42-.61-.79-1.15-1.21-1.7-2.06-2.79-4.06-5.57-6-8.42-.12-.12-.18-.24-.24-.36-1.7-2.36-3.33-4.79-4.97-7.27-1.03-1.51-2.06-3.03-3.03-4.6-1.7-2.54-3.39-5.15-5.03-7.82-1.76-2.67-3.45-5.45-5.15-8.24-1.64-2.73-3.33-5.51-4.97-8.3-.61-1.15-1.27-2.3-1.94-3.45-1.21-2.12-2.42-4.24-3.63-6.36-6.18-11.09-11.94-22.3-17.27-33.5-1.03-2.06-2-4.12-2.91-6.18-8.36-17.87-15.63-35.75-22.11-53.5-.79-2.18-1.57-4.3-2.36-6.48-2.61-7.33-5.03-14.6-7.33-21.81-.91-2.85-1.82-5.7-2.67-8.54-2.73-8.6-5.15-17.15-7.45-25.57-.73-2.67-1.39-5.33-2.12-8-.48-1.94-1.03-3.88-1.51-5.88-.61-2.48-1.27-4.97-1.82-7.39-.97-4-1.88-7.88-2.73-11.69-.79-3.21-1.45-6.3-2.12-9.45-.67-3.03-1.33-6.12-1.94-9.21-.61-3.03-1.27-6.06-1.82-9.03-.61-3.03-1.15-5.94-1.7-8.91-.54-2.97-1.09-5.88-1.57-8.79-.12-.36-.12-.85-.24-1.27-1.39-8.18-2.67-16.12-3.76-23.81h-.06c-.36-2.67-.73-5.33-1.09-7.94-.79-5.51-1.45-10.97-2.06-16.18-.24-2.12-.48-4.24-.73-6.24-1.03-9.51-1.88-18.36-2.54-26.42-.06-1.15-.18-2.3-.24-3.45-.24-2.79-.42-5.45-.61-8-.06-1.82-.18-3.51-.3-5.27-.3-5.03-.54-9.63-.73-13.75-.06-1.39-.12-2.67-.12-3.88-.24-7.39-.3-12.6-.36-15.33h.06c3.15-.24,9.69-.67,19.15-1.03,1.39-.06,2.85-.12,4.24-.12,11.81-.42,27.39-.54,45.74-.06,4.6,.06,9.39,.24,14.36,.42,2.48,.12,4.97,.24,7.51,.36,5.09,.24,10.42,.55,15.81,.91,21.69,1.45,45.68,3.82,71.19,7.63,3.21,.42,6.42,.91,9.63,1.45,6.48,1.03,13.03,2.18,19.63,3.39,3.33,.61,6.66,1.21,10,1.88h.06c15.57,3.15,31.57,6.79,47.68,11.03,2.42,.61,4.79,1.21,7.15,1.94,8.12,2.18,16.36,4.6,24.6,7.15,2.24,.73,4.48,1.45,6.73,2.24,12.97,4.12,25.93,8.85,38.9,13.93h.06c7.03,2.85,14.06,5.82,21.02,8.85,6.54,2.91,13.15,5.94,19.63,9.09,6.48,3.15,12.91,6.48,19.33,9.94,1.76,.91,3.51,1.88,5.21,2.85,38.47,21.08,75.19,47.5,107.97,80.46,3.21,3.21,6.36,6.48,9.51,9.82,3.09,3.39,6.18,6.79,9.21,10.24,1.51,1.76,3.03,3.45,4.54,5.21,2.97,3.57,5.94,7.21,8.85,10.84,1.45,1.82,2.91,3.7,4.36,5.57,1.27,1.64,2.48,3.27,3.82,4.97,3.76,5.09,7.39,10.24,11.03,15.51,1.21,1.82,2.36,3.57,3.51,5.39,1.21,1.82,2.36,3.57,3.51,5.45,1.21,1.76,2.36,3.64,3.45,5.45,3.39,5.57,6.73,11.21,9.94,17.03,3.21,5.82,6.36,11.75,9.33,17.81,1.15,2.3,2.24,4.54,3.39,6.85,.79,1.82,1.64,3.64,2.48,5.45,.97,2.06,1.88,4.18,2.85,6.3,.91,2.12,1.82,4.18,2.73,6.36,1.82,4.24,3.57,8.6,5.33,12.97,.79,2.18,1.64,4.36,2.42,6.54-3.21-6.12-133.48-247.56-516.51-230.72-.18-.06-.36-.06-.48-.06v.06h-.12Z"/><path class="h" d="M572.41,818.19c-.07,.07-.07,.15-.15,.22"/></svg>