<?xml version="1.0" encoding="UTF-8"?><svg id="a" xmlns="http://www.w3.org/2000/svg" viewBox="0 0 528.3 253.13"><defs><style>.b{fill:#fff;}</style></defs><g><path class="b" d="M184.92,89.55s.02,.02,.02,.03c7.71,20.68,11.41,46.12,9.13,77.36l-.36-.34C165.71,30.77,46.13,25.49,41.16,25.32c106.62-4.69,142.86,62.52,143.77,64.23h-.01Z"/><path class="b" d="M193.71,166.6C150.69,52.49,41.16,25.32,41.16,25.32c4.97,.17,124.56,5.45,152.55,141.28Z"/><path class="b" d="M201.73,155.7l.19-.3c90.68-34.41,81.05-117.57,80.61-121.02,0-.02,0-.06-.01-.08h0v-.03l-.48-.33c-73.35,14.32-86.96,66.01-87.29,67.31,0-.07,0-.13,0-.2,.12-.95,.25-1.88,.39-2.8,.09-.62,.2-1.25,.3-1.86,.14-.75,.28-1.49,.43-2.24l.28-1.33c.1-.44,.19-.88,.29-1.32,.1-.44,.21-.9,.32-1.34,.11-.44,.22-.89,.34-1.32,.11-.41,.23-.81,.33-1.21,.06-.24,.13-.48,.2-.71,.13-.41,.25-.82,.37-1.22,.33-1.04,.66-2.06,1.01-3.06,.14-.41,.28-.81,.44-1.22,.14-.4,.3-.81,.45-1.2,.3-.79,.62-1.58,.94-2.36,.17-.38,.34-.77,.49-1.16,.09-.19,.18-.38,.26-.57,.09-.19,.17-.38,.25-.57,.39-.85,.78-1.69,1.19-2.51,.18-.36,.36-.71,.54-1.07,.23-.44,.47-.88,.7-1.32,.47-.86,.94-1.7,1.43-2.54,.24-.42,.49-.82,.74-1.24,.13-.22,.26-.44,.4-.65,.03-.05,.05-.09,.08-.14,.87-1.41,1.8-2.79,2.73-4.13,.43-.62,.87-1.23,1.32-1.84,.35-.46,.7-.93,1.06-1.39,.11-.16,.25-.33,.37-.48,.44-.55,.88-1.11,1.33-1.65h0c.44-.55,.89-1.09,1.35-1.62,.04-.04,.07-.08,.11-.12,.48-.56,.96-1.1,1.45-1.63,.39-.43,.79-.86,1.19-1.28,.16-.2,.34-.39,.53-.57,.37-.39,.74-.77,1.12-1.16,.09-.09,.19-.19,.28-.27,.47-.49,.96-.97,1.44-1.42,.02-.03,.05-.04,.06-.06,.41-.4,.83-.79,1.25-1.18,.26-.25,.53-.49,.79-.72,.44-.41,.89-.81,1.34-1.2,.46-.42,.94-.84,1.43-1.24,.47-.41,.96-.82,1.45-1.22,.19-.16,.4-.32,.6-.49,.37-.29,.73-.59,1.11-.89,1.94-1.53,3.92-2.98,5.9-4.36,.37-.26,.74-.5,1.11-.75,3.17-2.15,6.38-4.1,9.59-5.89,.39-.22,.78-.44,1.18-.65,1.32-.73,2.64-1.42,3.96-2.08,.52-.27,1.04-.53,1.55-.79,1.57-.78,3.14-1.52,4.7-2.21,.49-.23,.98-.43,1.46-.65,.36-.17,.73-.32,1.09-.47,.46-.21,.91-.4,1.36-.59,.73-.31,1.45-.6,2.16-.89,.58-.24,1.17-.46,1.74-.69,.57-.23,1.14-.45,1.72-.67,.56-.21,1.13-.42,1.68-.63,.56-.21,1.11-.41,1.66-.6,.55-.19,1.1-.38,1.63-.57,.07-.04,.16-.05,.24-.08,1.55-.52,3.02-1,4.46-1.46h.01c.5-.16,.99-.31,1.48-.46,1.05-.33,2.07-.62,3.06-.89,.4-.11,.79-.23,1.17-.34,1.79-.49,3.47-.93,4.99-1.31,.22-.05,.44-.11,.66-.15,.53-.13,1.03-.25,1.52-.36,.34-.08,.66-.15,1-.23,.96-.21,1.84-.4,2.63-.56,.27-.05,.51-.11,.75-.14,1.41-.28,2.41-.44,2.92-.54h.01c.14,.61,.42,1.85,.78,3.65,.05,.27,.11,.54,.16,.82,.44,2.25,.96,5.23,1.44,8.78,.12,.89,.23,1.81,.35,2.77,.06,.48,.11,.97,.17,1.47,.1,.98,.21,2.01,.31,3.06,.39,4.21,.67,8.89,.73,13.91,.02,.63,.02,1.26,.02,1.89,0,1.29-.02,2.58-.05,3.89,0,.66-.02,1.31-.05,1.98h0c-.11,3.09-.32,6.27-.64,9.51-.04,.49-.09,.96-.15,1.44-.17,1.64-.38,3.29-.62,4.94-.06,.46-.14,.91-.22,1.37-.41,2.61-.9,5.27-1.48,7.91h0c-.33,1.45-.67,2.89-1.05,4.32-.36,1.34-.74,2.7-1.14,4.05-.4,1.34-.84,2.68-1.31,4.02-.13,.36-.25,.73-.39,1.08-2.87,8.04-6.81,15.92-12.13,23.24-.51,.71-1.05,1.42-1.6,2.13-.54,.71-1.09,1.4-1.67,2.09l-.87,1.02c-.59,.69-1.19,1.37-1.81,2.05-.3,.34-.62,.67-.93,1-.27,.3-.56,.58-.84,.89l-2.65,2.6c-.3,.29-.61,.57-.92,.85-.31,.28-.62,.57-.93,.84-.31,.29-.62,.56-.95,.83-.96,.83-1.95,1.65-2.96,2.44-1.02,.8-2.06,1.58-3.14,2.34-.41,.3-.8,.58-1.22,.86-.32,.21-.64,.44-.97,.65-.36,.24-.74,.5-1.12,.74-.38,.23-.75,.49-1.14,.72-.76,.48-1.54,.96-2.33,1.42-.39,.22-.78,.46-1.18,.67-.27,.14-.27,.14-.02,0-13.42,7.62-30.58,13-52.4,14.9l.02,.03Z"/><path class="b" d="M40.99,25.33l-.57,.61c3.31,99.37,64.05,133.08,73.89,137.91,.1,.02,.22,.03,.32,.05,.05,.02,.12,.02,.19,.05h-.29c.61,.29,.98,.46,1.1,.51-.1-.02-.19-.05-.27-.07-.51-.15-1.01-.3-1.5-.46-7.54-.05-56.17,2.19-89.09,63.59l.17,.54,.02,.02h.02s.05,.03,.07,.03c2.93,1.35,69.09,30.45,126.24-26.42C90.74,288.95,1.55,236.06,.02,235.15l-.02-.02c.25-.46,.69-1.37,1.38-2.63,.1-.22,.22-.44,.35-.67,.39-.71,.83-1.48,1.32-2.34,.17-.29,.34-.57,.51-.88,.25-.44,.51-.88,.79-1.35,.12-.2,.24-.39,.34-.59,.83-1.35,1.72-2.82,2.73-4.38,.2-.34,.44-.67,.66-1.03,.56-.86,1.13-1.75,1.75-2.65,.29-.42,.57-.84,.88-1.28v-.02c.88-1.23,1.75-2.5,2.71-3.83,.05-.05,.1-.13,.15-.2,.34-.46,.67-.91,1.03-1.38,.35-.47,.71-.93,1.06-1.42,.35-.47,.72-.94,1.1-1.42,.37-.49,.76-.96,1.15-1.45,.39-.47,.76-.96,1.16-1.45,.49-.59,.98-1.2,1.48-1.8,.32-.39,.64-.76,.98-1.13,.25-.3,.49-.62,.78-.91,.34-.4,.67-.79,1.05-1.2,1.11-1.28,2.28-2.56,3.49-3.84,.4-.4,.81-.83,1.21-1.25,1.01-1.06,2.07-2.12,3.15-3.17,.32-.32,.64-.62,.98-.93,2.65-2.55,5.46-5.04,8.45-7.44,.35-.27,.69-.56,1.05-.83,1.91-1.5,3.88-2.97,5.9-4.37,.4-.27,.81-.52,1.18-.79,.22-.13,.44-.29,.64-.42,.54-.35,1.06-.69,1.6-1.03,.52-.34,1.06-.67,1.6-.99,.51-.32,1.03-.64,1.55-.93,.3-.19,.61-.37,.93-.56,.49-.29,.98-.56,1.48-.84,.02,0,.03-.02,.07-.03,.57-.32,1.18-.64,1.79-.94,.1-.07,.24-.13,.34-.19,.49-.27,.96-.51,1.45-.74,.22-.12,.46-.24,.69-.34,.52-.25,1.05-.52,1.59-.76,.66-.3,1.3-.61,1.97-.91,.05-.02,.1-.03,.15-.07,.64-.27,1.28-.54,1.94-.81h.02c.64-.27,1.3-.54,1.96-.79,.19-.07,.39-.15,.57-.2,.56-.22,1.1-.4,1.65-.61,.71-.25,1.42-.51,2.14-.73,1.55-.51,3.14-.98,4.76-1.4,.05,0,.1-.02,.15-.03,.24-.07,.49-.13,.74-.19,.47-.12,.93-.24,1.4-.35,.94-.22,1.89-.42,2.85-.61,.49-.08,.98-.19,1.47-.29,.4-.07,.78-.12,1.18-.19,.91-.15,1.82-.29,2.75-.4,.2-.03,.42-.05,.62-.07,.2-.03,.42-.07,.62-.08,.42-.03,.83-.08,1.25-.13,.84-.08,1.69-.15,2.53-.2,.42-.03,.84-.07,1.28-.08,.42-.02,.86-.03,1.28-.05,1.06-.05,2.14-.07,3.22-.07,.42,0,.84,.02,1.28,0,.24,.02,.49,.02,.72,.03,.42,.02,.84,.02,1.26,.03,.44,.02,.89,.03,1.35,.07,.47,.02,.93,.05,1.38,.08,.46,.03,.89,.07,1.35,.1l1.35,.13c.76,.07,1.52,.17,2.28,.24,.61,.1,1.23,.19,1.85,.27,.3,.05,.61,.08,.93,.15-.42-.13-.86-.27-1.28-.4-.84-.27-1.7-.56-2.55-.84-1.03-.35-2.04-.73-3.05-1.1l-1.84-.71c-.59-.24-1.18-.47-1.79-.71l-1.82-.76c-.59-.27-1.2-.52-1.79-.78-.54-.25-1.08-.51-1.64-.74-.32-.15-.64-.3-.94-.46-.56-.27-1.1-.52-1.65-.79-1.38-.69-2.75-1.4-4.08-2.12-.54-.29-1.08-.59-1.62-.88-.54-.3-1.06-.61-1.59-.91-1.05-.61-2.09-1.23-3.12-1.87-.49-.32-.99-.64-1.52-.96-.24-.17-.49-.34-.74-.49-.24-.17-.51-.34-.74-.49-1.11-.74-2.19-1.5-3.27-2.26-.47-.34-.94-.67-1.4-1.01-.57-.4-1.15-.84-1.7-1.28-1.11-.84-2.19-1.7-3.25-2.58-.54-.44-1.06-.88-1.59-1.33-.29-.22-.57-.47-.83-.71-.07-.05-.13-.1-.19-.15-1.79-1.55-3.54-3.17-5.21-4.81-.78-.74-1.53-1.5-2.29-2.28-.57-.61-1.15-1.2-1.72-1.8-.2-.2-.4-.42-.59-.64-.69-.74-1.37-1.48-2.02-2.24l-.02-.02c-.67-.76-1.33-1.52-1.97-2.28-.05-.07-.1-.12-.14-.19-.69-.79-1.35-1.6-1.99-2.41-.52-.66-1.03-1.32-1.53-1.97-.24-.29-.47-.57-.67-.88-.47-.61-.94-1.21-1.38-1.84-.12-.17-.22-.32-.34-.47-.57-.78-1.13-1.55-1.67-2.34-.03-.03-.05-.07-.07-.1-.47-.66-.93-1.33-1.38-2.02-.29-.42-.57-.84-.84-1.28-.47-.71-.94-1.43-1.4-2.18-.49-.74-.96-1.52-1.43-2.29-.46-.76-.93-1.53-1.38-2.31-.17-.32-.35-.64-.54-.96-.34-.59-.67-1.18-1.01-1.77-1.72-3.09-3.32-6.21-4.81-9.33-.29-.57-.56-1.15-.81-1.72-2.33-4.97-4.35-9.95-6.15-14.89-.22-.61-.44-1.2-.66-1.8-.73-2.04-1.4-4.06-2.04-6.07-.25-.79-.51-1.59-.74-2.38-.76-2.39-1.43-4.77-2.07-7.12-.2-.74-.39-1.48-.59-2.23-.13-.54-.29-1.08-.42-1.64-.17-.69-.35-1.38-.51-2.06-.27-1.11-.52-2.19-.76-3.25-.22-.89-.4-1.75-.59-2.63-.19-.84-.37-1.7-.54-2.56-.17-.84-.35-1.69-.51-2.51-.17-.84-.32-1.65-.47-2.48-.15-.83-.3-1.64-.44-2.45-.03-.1-.03-.24-.07-.35-.39-2.28-.74-4.49-1.05-6.63h-.02c-.1-.74-.2-1.48-.3-2.21-.22-1.53-.4-3.05-.57-4.5-.07-.59-.13-1.18-.2-1.74-.29-2.65-.52-5.11-.71-7.35-.02-.32-.05-.64-.07-.96-.07-.78-.12-1.52-.17-2.23-.02-.51-.05-.98-.08-1.47-.08-1.4-.15-2.68-.2-3.83-.02-.39-.03-.74-.03-1.08-.07-2.06-.08-3.51-.1-4.27h.02c.88-.07,2.7-.19,5.33-.29,.39-.02,.79-.03,1.18-.03,3.29-.12,7.62-.15,12.73-.02,1.28,.02,2.61,.07,4,.12,.69,.03,1.38,.07,2.09,.1,1.42,.07,2.9,.15,4.4,.25,6.04,.4,12.71,1.06,19.81,2.12,.89,.12,1.79,.25,2.68,.4,1.8,.29,3.63,.61,5.46,.94,.93,.17,1.85,.34,2.78,.52h.02c4.33,.88,8.79,1.89,13.27,3.07,.67,.17,1.33,.34,1.99,.54,2.26,.61,4.55,1.28,6.85,1.99,.62,.2,1.25,.4,1.87,.62,3.61,1.15,7.22,2.46,10.83,3.88h.02c1.96,.79,3.91,1.62,5.85,2.46,1.82,.81,3.66,1.65,5.46,2.53,1.8,.88,3.59,1.8,5.38,2.77,.49,.25,.98,.52,1.45,.79,10.71,5.87,20.93,13.22,30.05,22.39,.89,.89,1.77,1.8,2.65,2.73,.86,.94,1.72,1.89,2.56,2.85,.42,.49,.84,.96,1.26,1.45,.83,.99,1.65,2.01,2.46,3.02,.4,.51,.81,1.03,1.21,1.55,.35,.46,.69,.91,1.06,1.38,1.05,1.42,2.06,2.85,3.07,4.32,.34,.51,.66,.99,.98,1.5,.34,.51,.66,.99,.98,1.52,.34,.49,.66,1.01,.96,1.52,.94,1.55,1.87,3.12,2.77,4.74,.89,1.62,1.77,3.27,2.6,4.96,.32,.64,.62,1.26,.94,1.91,.22,.51,.46,1.01,.69,1.52,.27,.57,.52,1.16,.79,1.75,.25,.59,.51,1.16,.76,1.77,.51,1.18,.99,2.39,1.48,3.61,.22,.61,.46,1.21,.67,1.82-.89-1.7-37.15-68.9-143.76-64.21-.05-.02-.1-.02-.13-.02v.02h-.03v.05Z"/><path class="b" d="M159.31,203.37s-.02,.04-.04,.06"/></g><g><path class="b" d="M173.06,220.18c3.56-2.21,7.53-3.9,11.92-5.06,4.38-1.16,8.5-2.46,12.35-3.9,3.85-1.44,7.08-3.32,9.68-5.63s3.9-5.73,3.9-10.26v-.14c-.68-5.3-2.6-9.17-5.78-11.63s-6.79-3.68-10.83-3.68c-2.31,0-4.65,.39-7.01,1.16s-4.55,1.93-6.57,3.47c-2.02,1.54-3.83,3.4-5.42,5.56-1.59,2.17-2.77,4.69-3.54,7.58l-2.31-.43c.87-3.37,2.21-6.31,4.05-8.81,1.83-2.5,3.9-4.55,6.21-6.14,2.31-1.59,4.84-2.77,7.58-3.54,2.74-.77,5.46-1.16,8.16-1.16,2.98,0,5.87,.43,8.67,1.3,2.79,.87,5.3,2.17,7.51,3.9,2.21,1.73,4.02,3.85,5.42,6.36,1.39,2.51,2.14,5.35,2.24,8.52l.14,53.6h-2.17l-6.07-11.7c-2.6,4.43-6.26,7.8-10.98,10.11s-9.63,3.47-14.74,3.47c-2.51,0-4.91-.29-7.22-.87-4.14-1.06-7.37-2.94-9.68-5.63-2.31-2.69-3.68-5.66-4.12-8.88-.43-3.23,.05-6.45,1.44-9.68s3.78-5.85,7.15-7.87l.02-.02Zm8.81,27.88c2.12,1.06,4.62,1.59,7.51,1.59,2.6,0,5.15-.43,7.66-1.3,2.5-.87,4.77-2.07,6.79-3.61,2.02-1.54,3.71-3.3,5.06-5.27,1.35-1.97,2.12-4.02,2.31-6.14v-30.48c-1.44,3.18-3.61,5.59-6.5,7.22-2.89,1.64-6,3.01-9.32,4.12s-6.65,2.29-9.97,3.54-6.14,3.13-8.45,5.63c-1.54,1.73-2.58,3.81-3.11,6.21-.53,2.41-.58,4.82-.14,7.22,.43,2.41,1.35,4.62,2.74,6.65,1.39,2.02,3.2,3.56,5.42,4.62h0Z"/><path class="b" d="M230.13,179.73l14.01-.14-.14,9.53c2.7-4.05,6.16-7.01,10.4-8.88,4.24-1.88,8.67-2.82,13.29-2.82,3.27,0,6.45,.48,9.53,1.44s5.83,2.38,8.23,4.26c2.41,1.88,4.33,4.19,5.78,6.93,1.44,2.74,2.17,5.95,2.17,9.61v51.57h-8.38v-51.57c.09-3.66-.36-6.76-1.37-9.32-1.01-2.55-2.38-4.62-4.12-6.21-1.73-1.59-3.73-2.77-6-3.54-2.26-.77-4.6-1.16-7.01-1.16-2.7,0-5.39,.41-8.09,1.23-2.7,.82-5.11,2-7.22,3.54-2.12,1.54-3.83,3.32-5.13,5.35-1.3,2.02-1.95,4.29-1.95,6.79v54.9h-8.23v-67.9l-5.78-2.31v-1.3h0Z"/><path class="b" d="M303.23,179.73h10.26v-33.8l-5.78-2.46v-1.16h14.16v37.42h19.36v2.17h-19.36v53.74c-.1,3.28,.24,5.95,1.01,8.02,.77,2.07,1.83,3.68,3.18,4.84,1.93,1.64,4.38,2.46,7.37,2.46,4.04,0,8.33-1.44,12.86-4.33l1.16,1.44c-3.18,1.93-6.09,3.25-8.74,3.97s-5.03,1.08-7.15,1.08c-6.07,0-10.6-1.78-13.58-5.35-2.99-3.56-4.48-8.38-4.48-14.45v-51.43h-10.26v-2.17h-.01Z"/><path class="b" d="M361.88,220.18c3.56-2.21,7.53-3.9,11.92-5.06,4.38-1.16,8.5-2.46,12.35-3.9,3.85-1.44,7.08-3.32,9.68-5.63s3.9-5.73,3.9-10.26v-.14c-.68-5.3-2.6-9.17-5.78-11.63s-6.79-3.68-10.83-3.68c-2.31,0-4.65,.39-7.01,1.16-2.36,.77-4.55,1.93-6.57,3.47-2.02,1.54-3.83,3.4-5.42,5.56s-2.77,4.69-3.54,7.58l-2.31-.43c.87-3.37,2.21-6.31,4.05-8.81,1.83-2.5,3.9-4.55,6.21-6.14s4.84-2.77,7.58-3.54c2.74-.77,5.47-1.16,8.16-1.16,2.98,0,5.87,.43,8.67,1.3,2.79,.87,5.3,2.17,7.51,3.9,2.21,1.73,4.02,3.85,5.42,6.36,1.4,2.51,2.14,5.35,2.24,8.52l.14,53.6h-2.17l-6.07-11.7c-2.6,4.43-6.26,7.8-10.98,10.11s-9.63,3.47-14.74,3.47c-2.51,0-4.91-.29-7.22-.87-4.14-1.06-7.37-2.94-9.68-5.63s-3.68-5.66-4.12-8.88c-.43-3.23,.05-6.45,1.44-9.68,1.4-3.23,3.78-5.85,7.15-7.87l.02-.02Zm8.81,27.88c2.12,1.06,4.62,1.59,7.51,1.59,2.6,0,5.15-.43,7.66-1.3,2.5-.87,4.77-2.07,6.79-3.61,2.02-1.54,3.71-3.3,5.06-5.27s2.12-4.02,2.31-6.14v-30.48c-1.44,3.18-3.61,5.59-6.5,7.22-2.89,1.64-6,3.01-9.32,4.12s-6.65,2.29-9.97,3.54-6.14,3.13-8.45,5.63c-1.54,1.73-2.58,3.81-3.11,6.21-.53,2.41-.58,4.82-.14,7.22,.43,2.41,1.35,4.62,2.74,6.65,1.4,2.02,3.2,3.56,5.42,4.62h0Z"/><path class="b" d="M418.8,179.73h14.16v15.75c2.5-5.49,6.4-9.73,11.7-12.71,5.3-2.98,10.64-4.48,16.04-4.48,2.5,0,4.86,.34,7.08,1.01,2.21,.68,4.19,1.73,5.92,3.18l-1.3,1.44c-3.18-2.6-7.08-3.9-11.7-3.9-2.99,0-5.99,.53-9.03,1.59-3.03,1.06-5.83,2.53-8.38,4.41-2.55,1.88-4.77,4.05-6.65,6.5-1.88,2.46-3.11,5.08-3.68,7.87v50.85h-8.38v-67.9l-5.78-2.31v-1.3h0Z"/><path class="b" d="M481.93,220.18c3.56-2.21,7.53-3.9,11.92-5.06,4.38-1.16,8.5-2.46,12.35-3.9,3.85-1.44,7.08-3.32,9.68-5.63s3.9-5.73,3.9-10.26v-.14c-.67-5.3-2.6-9.17-5.78-11.63-3.18-2.46-6.79-3.68-10.83-3.68-2.31,0-4.65,.39-7.01,1.16-2.36,.77-4.55,1.93-6.57,3.47-2.02,1.54-3.83,3.4-5.42,5.56-1.59,2.17-2.77,4.69-3.54,7.58l-2.31-.43c.87-3.37,2.21-6.31,4.05-8.81,1.83-2.5,3.9-4.55,6.21-6.14s4.84-2.77,7.58-3.54c2.74-.77,5.47-1.16,8.16-1.16,2.98,0,5.87,.43,8.67,1.3,2.79,.87,5.29,2.17,7.51,3.9,2.21,1.73,4.02,3.85,5.42,6.36,1.39,2.51,2.14,5.35,2.24,8.52l.14,53.6h-2.17l-6.07-11.7c-2.6,4.43-6.26,7.8-10.98,10.11s-9.63,3.47-14.74,3.47c-2.51,0-4.91-.29-7.22-.87-4.14-1.06-7.37-2.94-9.68-5.63s-3.68-5.66-4.12-8.88c-.43-3.23,.05-6.45,1.44-9.68,1.4-3.23,3.78-5.85,7.15-7.87l.02-.02Zm8.81,27.88c2.12,1.06,4.62,1.59,7.51,1.59,2.6,0,5.15-.43,7.66-1.3,2.5-.87,4.77-2.07,6.79-3.61s3.71-3.3,5.06-5.27,2.12-4.02,2.31-6.14v-30.48c-1.44,3.18-3.61,5.59-6.5,7.22-2.89,1.64-5.99,3.01-9.32,4.12-3.32,1.11-6.65,2.29-9.97,3.54s-6.14,3.13-8.45,5.63c-1.54,1.73-2.58,3.81-3.11,6.21-.53,2.41-.58,4.82-.14,7.22,.43,2.41,1.35,4.62,2.74,6.65,1.39,2.02,3.2,3.56,5.42,4.62h0Z"/></g></svg>