<?xml version="1.0" standalone="no"?>
<!DOCTYPE svg PUBLIC "-//W3C//DTD SVG 20010904//EN"
 "http://www.w3.org/TR/2001/REC-SVG-20010904/DTD/svg10.dtd">
<svg version="1.0" xmlns="http://www.w3.org/2000/svg"
 width="700.000000pt" height="700.000000pt" viewBox="0 0 700.000000 700.000000"
 preserveAspectRatio="xMidYMid meet">
<metadata>
Created by potrace 1.14, written by Peter Selinger 2001-2017
</metadata>
<g transform="translate(0.000000,700.000000) scale(0.100000,-0.100000)"
fill="#000000" stroke="none">
<path d="M334 6421 c-19 -8 -21 -16 -19 -78 3 -76 14 -247 20 -308 2 -22 7
-65 10 -95 34 -338 156 -914 236 -1115 4 -11 13 -38 20 -60 13 -45 85 -239 99
-270 5 -11 30 -67 55 -125 224 -512 567 -968 960 -1272 72 -57 262 -188 270
-188 3 0 24 -12 47 -26 96 -61 301 -157 473 -221 65 -24 79 -32 50 -28 -74 10
-369 14 -440 5 -121 -14 -158 -21 -245 -41 -294 -69 -566 -197 -830 -392 -52
-38 -97 -73 -100 -76 -3 -3 -27 -24 -55 -46 -74 -59 -309 -297 -396 -400 -173
-207 -334 -441 -459 -668 -17 -32 -30 -60 -28 -62 14 -14 248 -123 348 -163
212 -84 515 -169 670 -187 25 -3 90 -12 145 -20 95 -13 527 -15 580 -2 11 2
45 8 75 12 391 50 831 253 1161 535 67 57 263 251 313 309 42 49 167 210 195
251 22 31 19 30 -30 -15 -29 -27 -56 -53 -59 -56 -17 -17 -146 -123 -210 -170
-92 -69 -225 -156 -305 -199 -33 -18 -79 -43 -103 -56 -164 -89 -500 -201
-689 -230 -21 -3 -56 -9 -78 -14 -111 -24 -525 -34 -670 -16 -191 23 -307 44
-450 82 -154 40 -315 99 -315 115 0 27 198 345 288 464 331 434 714 731 1162
898 86 32 247 77 325 91 17 3 41 8 55 11 38 8 170 19 220 19 40 0 42 1 20 10
-47 21 -175 100 -274 169 -213 151 -383 311 -610 577 -170 200 -394 587 -516
895 -121 305 -232 737 -265 1030 -2 17 -6 50 -9 75 -3 25 -8 71 -11 103 -3 31
-7 81 -10 110 -19 204 -13 285 19 258 7 -6 27 -13 45 -16 18 -3 102 -30 187
-61 625 -222 1265 -594 1779 -1034 197 -169 509 -488 661 -675 153 -188 361
-483 442 -625 11 -19 46 -80 77 -135 99 -173 206 -396 319 -670 7 -16 18 -41
24 -55 l11 -25 1 30 c1 17 4 46 6 65 13 131 6 607 -12 769 -13 123 -23 199
-30 241 -2 14 -9 52 -14 85 -29 169 -70 334 -120 485 -48 146 -66 190 -75 182
-4 -4 -5 -2 -2 4 12 21 -91 242 -192 413 -131 221 -249 371 -445 567 -465 463
-1106 778 -1911 939 -66 13 -140 27 -165 30 -25 4 -52 9 -60 10 -56 10 -258
34 -338 41 -43 3 -88 8 -102 11 -46 9 -705 13 -726 4z"/>
<path d="M6855 6133 c-415 -92 -681 -184 -1005 -347 -524 -264 -901 -618
-1118 -1052 -87 -173 -165 -417 -187 -584 -5 -41 -2 -37 30 40 78 188 167 339
299 504 100 126 282 307 381 378 5 4 24 18 40 31 56 44 210 143 300 194 235
131 472 223 774 299 96 24 182 44 192 44 11 0 18 -11 22 -32 7 -41 1 -438 -7
-493 -3 -22 -8 -58 -11 -80 -3 -22 -7 -50 -9 -61 -2 -12 -7 -38 -10 -57 -18
-111 -88 -381 -116 -442 -5 -11 -21 -51 -36 -90 -202 -525 -594 -977 -1126
-1298 -92 -56 -328 -179 -328 -171 0 3 -13 -4 -29 -15 -16 -12 -33 -21 -38
-21 -5 0 -47 -16 -93 -35 l-85 -36 70 6 c39 3 79 7 90 9 11 2 45 7 75 11 259
32 592 128 830 238 608 281 1018 813 1168 1517 21 96 25 120 43 245 30 213 33
734 5 905 -3 14 -7 48 -11 75 -9 79 -34 225 -47 278 -12 48 -17 51 -63 40z"/>
</g>
</svg>
